<?xml version="1.0" encoding="iso-8859-1"?>
<!-- Generator: Adobe Illustrator 19.0.0, SVG Export Plug-In . SVG Version: 6.00 Build 0)  -->
<svg version="1.1" id="Capa_1" xmlns="http://www.w3.org/2000/svg" xmlns:xlink="http://www.w3.org/1999/xlink" x="0px" y="0px"
	 viewBox="0 0 480.963 480.963" style="enable-background:new 0 0 480.963 480.963;" xml:space="preserve">
<g>
	<g>
		<path d="M477.744,200.366c-0.003-0.005-0.006-0.01-0.009-0.015c-6.617-11.485-21.292-15.431-32.777-8.813
			c-0.008,0.004-0.015,0.009-0.023,0.013l-311.752,180c-1.956-3.382-6.069-4.857-9.728-3.488l-45.56,17.088
			c-0.413,0.152-0.811,0.34-1.192,0.56c-19.204,10.919-25.921,35.338-15.003,54.543c10.919,19.204,35.338,25.921,54.543,15.003
			c0.154-0.087,0.307-0.176,0.46-0.265c0.38-0.221,0.741-0.473,1.08-0.752l37.6-30.928c3.018-2.487,3.796-6.79,1.84-10.176
			L468.959,233.15C480.438,226.523,484.371,211.845,477.744,200.366z M108.135,441.43c-11.597,6.418-26.202,2.219-32.62-9.378
			c-6.253-11.299-2.444-25.521,8.62-32.182l38.568-14.4l17.216,29.824L108.135,441.43z M460.951,219.278l-0.016-0.008l-311.768,180
			l-8-13.856l311.768-180c3.824-2.214,8.718-0.909,10.932,2.915c0.004,0.007,0.008,0.014,0.012,0.021
			C466.088,212.177,464.777,217.069,460.951,219.278z"/>
	</g>
</g>
<g>
	<g>
		<path d="M200.335,235.062c-0.552-10.856-7.408-26.12-15.352-43.792c-8.194-16.163-14.394-33.262-18.464-50.92
			c-5.8-41.512,16.072-93,22.904-107.792c0.064-0.128,0.576-1.256,0.632-1.384c1.191-3.235,0.133-6.869-2.608-8.96
			c-2.812-2.165-6.683-2.326-9.664-0.4C161.095,32.438,79.727,87.03,49.471,157.518c-6.628-9.378-9.2-21.031-7.136-32.328
			c0.708-4.361-2.254-8.47-6.615-9.178c-3.234-0.525-6.462,0.975-8.145,3.786C7.973,155.841-1.491,196.524,0.191,237.518l0.4,8
			c2.32,43.06,30.831,80.281,71.8,93.736c0.798,0.26,1.633,0.392,2.472,0.392c4.418,0.001,8.001-3.58,8.002-7.998
			c0-0.659-0.081-1.315-0.242-1.954l-9.216-36.544c-4.656-18.576-0.92-46.88,18.128-51.72c4.664-0.62,9.36-0.97,14.064-1.048
			l0.952-0.032c8.496,0.153,16.541,3.854,22.184,10.208c9.385,9.716,14.376,22.855,13.808,36.352l-9.208,39.912
			c-0.985,4.307,1.708,8.597,6.015,9.582c2.118,0.484,4.342,0.087,6.161-1.102C173.615,316.902,202.375,275.502,200.335,235.062z
			 M154.391,306.822l3.944-17.096c0.112-0.502,0.176-1.014,0.192-1.528c0.915-18.214-5.802-35.985-18.536-49.04
			c-8.823-9.531-21.252-14.906-34.24-14.808l-0.92,0.048c-5.747,0.064-11.481,0.567-17.152,1.504
			c-27.656,7.048-36.984,42.448-29.784,71.16l5.28,20.952c-27.265-14.62-44.929-42.404-46.6-73.296l-0.4-8
			c-1.122-28.054,3.371-56.05,13.216-82.344c3.573,9.781,10.437,18.014,19.416,23.288c2.071,1.222,4.579,1.457,6.84,0.64
			c2.255-0.831,4.018-2.631,4.8-4.904c18.584-53.784,72.24-99.6,104.416-123.264c-9.176,25.096-18.632,60.616-14.168,92.44
			c4.213,19.179,10.836,37.748,19.712,55.264c6.311,12,11.005,24.783,13.96,38.016C185.639,261.014,171.871,288.11,154.391,306.822z
			"/>
	</g>
</g>
<g>
</g>
<g>
</g>
<g>
</g>
<g>
</g>
<g>
</g>
<g>
</g>
<g>
</g>
<g>
</g>
<g>
</g>
<g>
</g>
<g>
</g>
<g>
</g>
<g>
</g>
<g>
</g>
<g>
</g>
</svg>
